<?xml version="1.0" encoding="UTF-8" standalone="no"?>
<!-- Created with Inkscape (http://www.inkscape.org/) -->

<svg
   width="640"
   height="640"
   viewBox="0 0 169.33333 169.33332"
   version="1.1"
   id="svg1"
   xml:space="preserve"
   sodipodi:docname="logo.svg"
   inkscape:version="1.3.2 (091e20e, 2023-11-25)"
   inkscape:export-filename="social-preview.png"
   inkscape:export-xdpi="300"
   inkscape:export-ydpi="300"
   xmlns:inkscape="http://www.inkscape.org/namespaces/inkscape"
   xmlns:sodipodi="http://sodipodi.sourceforge.net/DTD/sodipodi-0.dtd"
   xmlns:xlink="http://www.w3.org/1999/xlink"
   xmlns="http://www.w3.org/2000/svg"
   xmlns:svg="http://www.w3.org/2000/svg"><sodipodi:namedview
     id="namedview1"
     pagecolor="#ffffff"
     bordercolor="#000000"
     borderopacity="0.25"
     inkscape:showpageshadow="2"
     inkscape:pageopacity="0.0"
     inkscape:pagecheckerboard="0"
     inkscape:deskcolor="#d1d1d1"
     inkscape:document-units="px"
     showgrid="true"
     inkscape:zoom="0.48673256"
     inkscape:cx="172.57937"
     inkscape:cy="428.36666"
     inkscape:window-width="1512"
     inkscape:window-height="860"
     inkscape:window-x="0"
     inkscape:window-y="38"
     inkscape:window-maximized="0"
     inkscape:current-layer="svg1"><inkscape:grid
       id="grid1"
       units="px"
       originx="0"
       originy="0"
       spacingx="2.6458332"
       spacingy="2.6458333"
       empcolor="#0099e5"
       empopacity="0.30196078"
       color="#0099e5"
       opacity="0.14902"
       empspacing="4"
       dotted="false"
       gridanglex="30"
       gridanglez="30"
       visible="true" /></sodipodi:namedview><defs
     id="defs1"><linearGradient
       id="linearGradient11"
       inkscape:collect="always"><stop
         style="stop-color:#fc6400;stop-opacity:1;"
         offset="0"
         id="stop11" /><stop
         style="stop-color:#d73502;stop-opacity:1;"
         offset="1"
         id="stop12" /></linearGradient><linearGradient
       id="linearGradient9"
       inkscape:collect="always"><stop
         style="stop-color:#ff7500;stop-opacity:1;"
         offset="0"
         id="stop9" /><stop
         style="stop-color:#fc6400;stop-opacity:1;"
         offset="1"
         id="stop10" /></linearGradient><linearGradient
       id="linearGradient7"
       inkscape:collect="always"><stop
         style="stop-color:#fac000;stop-opacity:1;"
         offset="0"
         id="stop7" /><stop
         style="stop-color:#ff7500;stop-opacity:1;"
         offset="1"
         id="stop8" /></linearGradient><style
       id="style1">

      .cls-3 {
        fill: url(#linear-gradient-1);
      }

      .cls-4 {
        fill: #fc9502;
      }

      .cls-5 {
        fill: #fce202;
      }
    </style><linearGradient
       id="linear-gradient-1"
       gradientUnits="userSpaceOnUse"
       x1="94.140999"
       y1="255"
       x2="94.140999"
       y2="0.18799999"
       gradientTransform="translate(-89.773999,-164.4345)"><stop
         offset="0"
         stop-color="#ff4c0d"
         id="stop1" /><stop
         offset="1"
         stop-color="#fc9502"
         id="stop2" /></linearGradient><linearGradient
       inkscape:collect="always"
       xlink:href="#linearGradient7"
       id="linearGradient8"
       x1="3.9655421"
       y1="90.377495"
       x2="3.9655421"
       y2="19.377497"
       gradientUnits="userSpaceOnUse" /><linearGradient
       inkscape:collect="always"
       xlink:href="#linearGradient9"
       id="linearGradient10"
       x1="4.2266684"
       y1="90.377495"
       x2="4.2266684"
       y2="-67.950089"
       gradientUnits="userSpaceOnUse" /><linearGradient
       inkscape:collect="always"
       xlink:href="#linearGradient11"
       id="linearGradient12"
       x1="4.3731627"
       y1="90.377495"
       x2="4.3731627"
       y2="-164.43906"
       gradientUnits="userSpaceOnUse" /></defs><rect
     style="fill:#801100;fill-opacity:1;stroke:none;stroke-width:0;stroke-linecap:round;stroke-linejoin:round;stroke-miterlimit:10;stroke-dasharray:none"
     id="rect1"
     width="169.33333"
     height="169.33331"
     x="-1.110223e-16"
     y="0"
     inkscape:label="Background"
     ry="21.166666" /><g
     id="fire"
     transform="matrix(0.47775346,0,0,0.47775346,82.577368,94.405171)"
     inkscape:label="Fire"
     style="display:inline;stroke-width:1.73743"><path
       d="M 98.125001,0.37449694 C 96.029001,50.433497 54.800001,90.377497 4.2260006,90.377497 c -51.9149996,0 -93.9999996,-43.5 -93.9999996,-94.0000001 0,-6.7499999 -0.121,-20.2399999 10,-42.9999999 6.057,-13.621 9.856,-22.178 12,-30 1.178,-4.299 3.469,-11.129 10,0 3.851,6.562 4,16 4,16 0,0 14.328,-10.995 24,-32 14.179,-30.792997 2.866,-49.199997 -1,-61.999997 -1.338,-4.428 -2.178,-12.386 7,-9 9.352,3.451 34.076,20.758 47,39 18.445,26.034997 25,50.999997 25,50.999997 0,0 5.906,-7.33 8,-15 2.365,-8.661 2.4,-17.238997 9.999,-7.999 7.227,8.787 17.96,25.3 24.001,40.999 10.968999,28.509 7.899,55.99699994 7.899,55.99699994 z"
       id="path-1"
       class="cls-3"
       fill-rule="evenodd"
       style="display:inline;fill:url(#linearGradient12);stroke-width:1.73743"
       inkscape:label="Fire-3" /><path
       d="m 4.2260006,90.377497 c -35.8989996,0 -64.9999996,-29.101 -64.9999996,-65 0,-21.6610001 8.729,-34.8120001 26.896,-52.646 11.632,-11.419 22.519,-25.444 27.1459996,-34.994 0.911,-1.88 2.984,-11.677 10.977,-0.206 4.193,6.016 10.7660004,16.715 14.9810004,25.846 7.266,15.743 9,30.9999999 9,30.9999999 0,0 7.121,-4.196 12,-14.9999999 1.573,-3.482 4.753,-16.664 13.643,-3.484 6.523,9.672 15.484,27.0619999 15.357,49.484 0,35.899 -29.102,65 -65.0000004,65 z"
       id="path-2"
       class="cls-4"
       fill-rule="evenodd"
       inkscape:label="Fire-2"
       style="display:inline;fill:url(#linearGradient10);stroke-width:1.73743" /><path
       d="m 5.2260006,19.377497 c 9.2500004,0 9.2500004,17.129 21.0000004,40 7.824,15.229 -3.879,31 -21.0000004,31 -17.1209996,0 -25.9999996,-13.879 -25.9999996,-31 0,-17.12 16.7499996,-40 25.9999996,-40 z"
       id="path-3"
       class="cls-5"
       fill-rule="evenodd"
       inkscape:label="Fire-1"
       style="display:inline;fill:url(#linearGradient8);stroke:none;stroke-width:0;stroke-dasharray:none" /></g><g
     id="g1"
     transform="matrix(0.17569986,0,0,0.17569986,39.687501,63.910625)"
     style="display:inline;stroke-width:2.35293"
     inkscape:label="Anvil"><path
       style="fill:#3d3737;stroke-width:2.35293"
       d="m 150.069,145.655 v 79.448 h 229.517 c 54.731,0 100.634,-32.662 120.938,-79.448 z"
       id="path6"
       inkscape:label="Anvil-6" /><path
       style="display:inline;fill:#7f7c79;stroke-width:2.35293"
       d="m 318.676,260.414 c 6.179,-13.241 14.124,-24.717 25.6,-35.31 H 167.724 c 11.476,10.593 20.303,22.069 25.6,35.31 z"
       id="path5"
       transform="translate(-1.7786171e-5)"
       inkscape:label="Anvil-5" /><path
       style="display:inline;fill:#7f7c79;stroke-width:2.35293"
       d="M 512,92.69 H 150.069 v 52.966 H 500.524 C 507.586,129.766 512,111.228 512,92.69"
       id="path4"
       transform="translate(-1.7786171e-5)"
       inkscape:label="Anvil-4" /><path
       style="display:inline;fill:#7f7c79;stroke-width:2.35293"
       d="M 379.586,419.31 H 132.414 c -9.71,0 -17.655,-7.945 -17.655,-17.655 0,-9.71 7.944,-17.655 17.655,-17.655 h 247.172 c 9.71,0 17.655,7.945 17.655,17.655 0,9.71 -7.944,17.655 -17.655,17.655"
       id="path3"
       transform="translate(-1.7786171e-5)"
       inkscape:label="Anvil-3" /><path
       style="display:inline;fill:#565656;stroke-width:2.35293"
       d="M 344.276,384 H 167.724 c 46.786,-42.372 46.786,-116.524 0,-158.897 h 176.552 c -46.786,42.373 -46.786,116.525 0,158.897"
       id="path2"
       transform="translate(-1.7786171e-5)"
       inkscape:label="Anvil-2" /><path
       style="display:inline;fill:#565656;stroke-width:2.35293"
       d="M 150.069,225.103 H 105.931 C 47.669,225.103 0,177.434 0,119.172 h 150.069 z"
       id="path1"
       transform="translate(-1.7786171e-5)"
       inkscape:label="Anvil-1" /></g></svg>
